<?xml version="1.0" encoding="UTF-8" standalone="no"?>
<svg
   width="1e3"
   height="1e3"
   version="1.1"
   viewBox="0 0 264.58 264.58"
   id="svg10"
   sodipodi:docname="logo.svg"
   inkscape:export-filename="/home/jan/Medien/Projekte/armed-conflicts/frontend/src/images/logo.png"
   inkscape:export-xdpi="96"
   inkscape:export-ydpi="96"
   inkscape:version="1.1 (ce6663b3b7, 2021-05-25)"
   xmlns:inkscape="http://www.inkscape.org/namespaces/inkscape"
   xmlns:sodipodi="http://sodipodi.sourceforge.net/DTD/sodipodi-0.dtd"
   xmlns="http://www.w3.org/2000/svg"
   xmlns:svg="http://www.w3.org/2000/svg"
   xmlns:rdf="http://www.w3.org/1999/02/22-rdf-syntax-ns#"
   xmlns:cc="http://creativecommons.org/ns#"
   xmlns:dc="http://purl.org/dc/elements/1.1/">
  <defs
     id="defs14" />
  <sodipodi:namedview
     pagecolor="#ffffff"
     bordercolor="#666666"
     borderopacity="1"
     objecttolerance="10"
     gridtolerance="10"
     guidetolerance="10"
     inkscape:pageopacity="0"
     inkscape:pageshadow="2"
     inkscape:window-width="1852"
     inkscape:window-height="1016"
     id="namedview12"
     showgrid="false"
     inkscape:zoom="0.2155"
     inkscape:cx="-881.67053"
     inkscape:cy="605.56844"
     inkscape:window-x="68"
     inkscape:window-y="27"
     inkscape:window-maximized="1"
     inkscape:current-layer="g8"
     inkscape:pagecheckerboard="0" />
  <metadata
     id="metadata2">
    <rdf:RDF>
      <cc:Work
         rdf:about="">
        <dc:format>image/svg+xml</dc:format>
        <dc:type
           rdf:resource="http://purl.org/dc/dcmitype/StillImage" />
        <dc:title />
      </cc:Work>
    </rdf:RDF>
  </metadata>
  <g
     id="g8">
    <path
       d="m133.53 2.6353c-13.43 0.0072417-26.892 2.1187-39.879 6.3502-15.661 5.1028-29.977 13.183-42.31 23.545l11.347 11.347c12.153-9.9344 26.315-17.239 41.671-21.424 1.7936-0.4888 3.2889-0.86042 3.3228-0.82579 0.0339 0.03458-0.91029 1.142-2.0987 2.4611-10.148 11.264-18.93 24.25-25.315 37.369l8.3283 8.3283c0.75902-1.6751 1.6475-3.5638 2.3961-5.0517 7.466-14.84 17.042-27.898 29.068-39.638 4.9232-4.8062 6.6811-6.3084 7.3832-6.3084h0.5407v62.104l-1.3251-0.03594c-7.0265-0.19053-18.427-1.7298-27.076-3.6552-1.1757-0.26174-2.9286-0.70116-4.7479-1.1754l14.121 14.121c5.1157 0.72709 10.691 1.29 17.198 1.7638l1.8303 0.13296v17.132l11.108 11.108v-28.24l1.8303-0.14084c1.0067-0.07747 2.9093-0.20717 4.2284-0.28856 11.052-0.68203 24.926-3.2123 35.971-6.56 1.6342-0.49531 3.0034-0.86773 3.0431-0.82726 0.19689 0.20033 2.2829 7.3561 3.1496 10.803 1.2957 5.1533 2.1489 9.4382 2.9048 14.59 0.68052 4.638 1.3808 11.731 1.3827 14l9.4e-4 1.4516h-47.722l11.107 11.107h10.423l26.318-4.9e-4 -0.0634 1.4522c-0.45786 10.355-1.9794 20.562-4.5622 30.663l8.9703 8.9704c3.6036-11.877 6.0154-25.664 6.5517-37.467l0.16395-3.6178h42.586v1.0075c0 1.8075-0.7793 8.629-1.4137 12.373-2.6042 15.366-8.7495 30.655-17.581 43.738-1.1013 1.6315-2.0286 2.9663-2.0602 2.9663-0.0313 0-1.2427-0.75463-2.6916-1.6767-4.7038-2.9935-11.92-6.8878-18.043-9.811l28.04 28.04c6.7298-8.0227 12.52-16.914 17.172-26.524 16.972-35.058 16.975-76.169 7e-3 -111.33-13.822-28.642-38.177-51.38-67.68-63.185-15.225-6.0922-31.388-9.1481-47.597-9.1393zm5.5628 16.153h0.59477c0.6927 0 2.4618 1.5324 7.699 6.6698 9.8341 9.6466 17.905 20.07 24.772 31.992 3.8956 6.7637 8.3111 16.103 7.757 16.406-0.16719 0.09149-2.1655 0.68851-4.4407 1.3271-10.216 2.8672-20.452 4.6354-31.585 5.456-1.8744 0.13814-3.7205 0.25187-4.1023 0.25212l-0.6943 4.92e-4v-31.052zm20.33 2.8378c0.5356-0.01816 7.0588 1.8513 10.343 2.9722 16.655 5.6844 31.894 15.371 44.221 28.108l3.4099 3.5233-1.8519 1.1917c-5.3242 3.4271-13.943 7.949-20.86 10.944-2.1234 0.91931-3.8898 1.6718-3.9262 1.6718-0.0358 0-0.67615-1.392-1.4215-3.0929-6.7199-15.333-16.255-30.01-27.84-42.854-1.1898-1.3191-2.138-2.4241-2.107-2.4557 5e-3 -0.0046 0.0155-0.0072 0.0326-0.0079zm64.944 43.344 2.008 2.9747c8.8374 13.092 14.982 28.377 17.587 43.747 0.63437 3.7435 1.4137 10.565 1.4137 12.373v1.0075h-42.593l-0.17433-3.0924c-0.70342-12.474-3.2069-26.197-6.9632-38.165-0.56332-1.7948-0.93622-3.3389-0.82875-3.4312 0.10748-0.09224 1.7857-0.83136 3.7296-1.6422 6.9954-2.9181 15.84-7.6116 25.028-13.282z"
       fill="#1a9988"
       stroke-width=".25246"
       id="path4"
       style="fill:#50a453;fill-opacity:1" />
    <path
       d="m36.584 49.14c-16.272 19.425-26.971 43.578-29.334 69.705-0.77851 8.0951-0.72702 8.0437-2.0228 8.0437-1.35 0-3.1663 2.3856-3.1663 4.1506 0 1.7649 1.8162 4.1506 3.1663 4.1506 1.2987 0 1.2446-0.0495 2.0228 8.0437 2.128 23.922 11.988 48.156 27.398 67.459 21.743 27.192 54.332 44.99 88.06 47.999 8.0952 0.77802 8.0437 0.72689 8.0437 2.0253 0 0.56936 0.62331 1.5045 1.3502 2.0765 0 0 5.5008 1.1929 6.7451-1.8165 0.67488-1.6104 0.93555-1.7648 2.9575-1.7648 3.3726 0 13.441-1.3496 19.563-2.594 13.647-2.8547 31.134-10.121 43.07-18.007 4.3317-2.8647 8.4593-5.9538 12.373-9.2432l-5.8282-5.8283c-1.2624 1.0865-2.4423 2.0494-3.4814 2.8265-14.425 10.793-30.773 18.213-47.948 21.691-4.8772 0.98687-15.204 2.3341-18.007 2.3341h-1.9707v-22.157l4.3077-0.31122c6.0186-0.41515 14.114-2.1286 21.379-4.5657 10.735-3.5725 20.711-9.06 29.509-16.028l-5.8869-5.8869c-13.099 9.8978-29.733 16.474-45.21 17.659l-4.0989 0.31122v-10.95c0-10.95-2.8e-4 -11.001 1.1926-11.21 0.62306-0.15378 2.9064-0.51743 5.0345-0.82922 9.0432-1.3319 18.445-5.381 26.775-11.287l-5.9347-5.9347c-7.3785 4.8218-15.864 8.0416-23.489 8.7631l-3.5814 0.31171 0.10197-11.053 0.15366-11.053 3.3726-0.88093c2.9445-0.76039 4.8975-1.4393 6.9884-2.5419l-6.5151-6.5152c-0.77832 0.28192-1.5024 0.49106-2.1278 0.59879l-1.9707 0.31169v-5.0089l-9.3451-9.3451v3.6104l3e-3 -5e-4v10.742l-1.9194-0.3117c-3.3726-0.57245-9.3913-3.8933-12.352-6.851-2.9577-2.9578-6.2785-8.9758-6.8506-12.348l-0.31169-1.9194h14.352l-9.3407-9.3407h-5.0084l0.31172-1.8165c0.12114-0.72814 0.32343-1.4978 0.59041-2.2897l-6.491-6.4911c-1.239 2.4024-2.1846 4.9025-2.764 7.4311l-0.67462 2.9063-11.156 0.15363-11.156 0.10438 0.46584-3.4755c1.0787-8.5788 4.1789-16.62 8.7882-23.616l-5.9435-5.9435c-5.8194 8.3074-9.9341 17.888-11.251 26.81-0.31154 2.128-0.67502 4.4109-0.82925 5.0345-0.20816 1.1929-0.25972 1.1926-11.207 1.1926h-10.95l0.36341-4.514c0.15379-2.4914 0.93568-7.2138 1.6619-10.535 2.863-12.757 8.3606-24.375 15.913-34.288l-5.8494-5.8495c-2.585 3.2443-4.9699 6.6355-7.112 10.145-7.2655 11.934-12.558 27.813-13.493 40.319l-0.30973 4.7228h-22.157v-1.8165c0-7.4716 2.7492-22.003 6.073-31.915 4.6918-14.116 11.476-26.405 20.838-37.616zm-21.027 86.565h22.154l0.31219 4.7257c0.67487 8.9247 4.1505 21.639 8.6129 31.239 7.8348 17.02 21.845 32.535 38.556 42.759 11.934 7.2657 27.97 12.609 40.736 13.493l4.3076 0.31119v22.312l-4.5652-0.36341c-23.041-1.7134-44.733-9.8596-63.412-23.819-6.3303-4.7227-17.955-16.345-22.678-22.678-10.638-14.271-18.267-31.031-21.639-47.742-1.2987-6.436-2.3858-14.892-2.3858-18.421zm61.904 7e-3 11.156 0.10135 11.156 0.15414 0.67508 2.8565c1.9194 8.51 8.095 17.02 15.981 22.054 3.6842 2.3343 5.8126 3.2692 10.172 4.4106l3.3725 0.88093 0.15364 11.053 0.1044 11.053-3.5813-0.3117c-4.4624-0.46668-11.519-2.492-16.502-4.7747-17.275-7.9893-29.835-25.115-32.221-44.003zm-30.927 2e-3h10.95c10.947-4e-3 10.999-4e-3 11.207 1.139 0.15376 0.6749 0.46553 2.9066 0.77801 4.9833 2.9578 19.72 17.435 39.074 36.272 48.571 5.0344 2.543 13.441 5.2923 18.267 6.0188 2.1282 0.31152 4.4112 0.675 5.0862 0.82924 1.1413 0.20815 1.1414 0.25943 1.1414 11.21v10.95l-4.0994-0.31169c-25.064-1.9201-50.23-16.763-64.501-37.985-8.1466-12.091-13.75-27.607-14.737-40.891z"
       fill="#eb5600"
       stroke-width=".02711"
       id="path6" />
  </g>
</svg>
