<?xml version="1.0" encoding="UTF-8" standalone="no"?>
<svg
   width="7999"
   height="984.1687"
   version="1.1"
   viewBox="0 0 2116.3781 260.39172"
   id="svg10"
   sodipodi:docname="logo.svg"
   inkscape:export-filename="/home/jan/Medien/Projekte/armed-conflicts/frontend/src/images/logo.png"
   inkscape:export-xdpi="96"
   inkscape:export-ydpi="96"
   inkscape:version="1.1.2 (76b9e6a115, 2022-02-25)"
   xmlns:inkscape="http://www.inkscape.org/namespaces/inkscape"
   xmlns:sodipodi="http://sodipodi.sourceforge.net/DTD/sodipodi-0.dtd"
   xmlns="http://www.w3.org/2000/svg"
   xmlns:svg="http://www.w3.org/2000/svg"
   xmlns:rdf="http://www.w3.org/1999/02/22-rdf-syntax-ns#"
   xmlns:cc="http://creativecommons.org/ns#"
   xmlns:dc="http://purl.org/dc/elements/1.1/">
  <defs
     id="defs14">
    <rect
       x="1269.2711"
       y="1083.8276"
       width="7333.2642"
       height="1328.2001"
       id="rect6359" />
    <rect
       x="1283.4415"
       y="156.25613"
       width="6250.4492"
       height="738.67511"
       id="rect10235" />
    <rect
       x="1054.0732"
       y="245.99551"
       width="2897.4954"
       height="648.96692"
       id="rect6269" />
  </defs>
  <sodipodi:namedview
     pagecolor="#191a1a"
     bordercolor="#666666"
     borderopacity="1"
     objecttolerance="10"
     gridtolerance="10"
     guidetolerance="10"
     inkscape:pageopacity="0"
     inkscape:pageshadow="2"
     inkscape:window-width="1852"
     inkscape:window-height="1016"
     id="namedview12"
     showgrid="true"
     inkscape:zoom="0.028284271"
     inkscape:cx="866.20581"
     inkscape:cy="-866.20581"
     inkscape:window-x="68"
     inkscape:window-y="27"
     inkscape:window-maximized="1"
     inkscape:current-layer="text10233"
     inkscape:pagecheckerboard="0"
     width="8489.7891px"
     fit-margin-top="0"
     fit-margin-left="0"
     fit-margin-right="0"
     fit-margin-bottom="0"
     scale-x="0.26458037">
    <inkscape:grid
       type="xygrid"
       id="grid15681" />
  </sodipodi:namedview>
  <metadata
     id="metadata2">
    <rdf:RDF>
      <cc:Work
         rdf:about="">
        <dc:format>image/svg+xml</dc:format>
        <dc:type
           rdf:resource="http://purl.org/dc/dcmitype/StillImage" />
      </cc:Work>
    </rdf:RDF>
  </metadata>
  <g
     id="g8"
     transform="translate(-2.0609,-2.6353)">
    <path
       d="M 133.53,2.6353 C 120.1,2.6425417 106.638,4.754 93.651,8.9855 77.99,14.0883 63.674,22.1685 51.341,32.5305 l 11.347,11.347 c 12.153,-9.9344 26.315,-17.239 41.671,-21.424 1.7936,-0.4888 3.2889,-0.86042 3.3228,-0.82579 0.0339,0.03458 -0.91029,1.142 -2.0987,2.4611 -10.148,11.264 -18.93,24.25 -25.315,37.369 l 8.3283,8.3283 c 0.75902,-1.6751 1.6475,-3.5638 2.3961,-5.0517 7.466,-14.84 17.042,-27.898 29.068,-39.638 4.9232,-4.8062 6.6811,-6.3084 7.3832,-6.3084 h 0.5407 v 62.104 l -1.3251,-0.03594 c -7.0265,-0.19053 -18.427,-1.7298 -27.076,-3.6552 -1.1757,-0.26174 -2.9286,-0.70116 -4.7479,-1.1754 l 14.121,14.121 c 5.1157,0.72709 10.691,1.29 17.198,1.7638 l 1.8303,0.13296 v 17.132 l 11.108,11.108 v -28.24 l 1.8303,-0.14084 c 1.0067,-0.07747 2.9093,-0.20717 4.2284,-0.28856 11.052,-0.68203 24.926,-3.2123 35.971,-6.56 1.6342,-0.49531 3.0034,-0.86773 3.0431,-0.82726 0.19689,0.20033 2.2829,7.3561 3.1496,10.803 1.2957,5.1533 2.1489,9.4382 2.9048,14.59 0.68052,4.638 1.3808,11.731 1.3827,14 l 9.4e-4,1.4516 h -47.722 l 11.107,11.107 h 10.423 l 26.318,-4.9e-4 -0.0634,1.4522 c -0.45786,10.355 -1.9794,20.562 -4.5622,30.663 l 8.9703,8.9704 c 3.6036,-11.877 6.0154,-25.664 6.5517,-37.467 l 0.16395,-3.6178 h 42.586 v 1.0075 c 0,1.8075 -0.7793,8.629 -1.4137,12.373 -2.6042,15.366 -8.7495,30.655 -17.581,43.738 -1.1013,1.6315 -2.0286,2.9663 -2.0602,2.9663 -0.0313,0 -1.2427,-0.75463 -2.6916,-1.6767 -4.7038,-2.9935 -11.92,-6.8878 -18.043,-9.811 l 28.04,28.04 c 6.7298,-8.0227 12.52,-16.914 17.172,-26.524 16.972,-35.058 16.975,-76.169 0.007,-111.33 -13.822,-28.642 -38.177,-51.38 -67.68,-63.185 -15.225,-6.0922 -31.388,-9.1481 -47.597,-9.1393 z m 5.5628,16.153 h 0.59477 c 0.6927,0 2.4618,1.5324 7.699,6.6698 9.8341,9.6466 17.905,20.07 24.772,31.992 3.8956,6.7637 8.3111,16.103 7.757,16.406 -0.16719,0.09149 -2.1655,0.68851 -4.4407,1.3271 -10.216,2.8672 -20.452,4.6354 -31.585,5.456 -1.8744,0.13814 -3.7205,0.25187 -4.1023,0.25212 l -0.6943,4.92e-4 v -31.052 z m 20.33,2.8378 c 0.5356,-0.01816 7.0588,1.8513 10.343,2.9722 16.655,5.6844 31.894,15.371 44.221,28.108 l 3.4099,3.5233 -1.8519,1.1917 c -5.3242,3.4271 -13.943,7.949 -20.86,10.944 -2.1234,0.91931 -3.8898,1.6718 -3.9262,1.6718 -0.0358,0 -0.67615,-1.392 -1.4215,-3.0929 -6.7199,-15.333 -16.255,-30.01 -27.84,-42.854 -1.1898,-1.3191 -2.138,-2.4241 -2.107,-2.4557 0.005,-0.0046 0.0155,-0.0072 0.0326,-0.0079 z m 64.944,43.344 2.008,2.9747 c 8.8374,13.092 14.982,28.377 17.587,43.747 0.63437,3.7435 1.4137,10.565 1.4137,12.373 v 1.0075 h -42.593 l -0.17433,-3.0924 c -0.70342,-12.474 -3.2069,-26.197 -6.9632,-38.165 -0.56332,-1.7948 -0.93622,-3.3389 -0.82875,-3.4312 0.10748,-0.09224 1.7857,-0.83136 3.7296,-1.6422 6.9954,-2.9181 15.84,-7.6116 25.028,-13.282 z"
       fill="#1a9988"
       stroke-width="0.25246"
       id="path4"
       style="fill:#50a453;fill-opacity:1" />
    <path
       d="M 36.584,49.14 C 20.312,68.565 9.613,92.718 7.25,118.845 c -0.77851,8.0951 -0.72702,8.0437 -2.0228,8.0437 -1.35,0 -3.1663,2.3856 -3.1663,4.1506 0,1.7649 1.8162,4.1506 3.1663,4.1506 1.2987,0 1.2446,-0.0495 2.0228,8.0437 2.128,23.922 11.988,48.156 27.398,67.459 21.743,27.192 54.332,44.99 88.06,47.999 8.0952,0.77802 8.0437,0.72689 8.0437,2.0253 0,0.56936 0.62331,1.5045 1.3502,2.0765 0,0 5.5008,1.1929 6.7451,-1.8165 0.67488,-1.6104 0.93555,-1.7648 2.9575,-1.7648 3.3726,0 13.441,-1.3496 19.563,-2.594 13.647,-2.8547 31.134,-10.121 43.07,-18.007 4.3317,-2.8647 8.4593,-5.9538 12.373,-9.2432 l -5.8282,-5.8283 c -1.2624,1.0865 -2.4423,2.0494 -3.4814,2.8265 -14.425,10.793 -30.773,18.213 -47.948,21.691 -4.8772,0.98687 -15.204,2.3341 -18.007,2.3341 h -1.9707 v -22.157 l 4.3077,-0.31122 c 6.0186,-0.41515 14.114,-2.1286 21.379,-4.5657 10.735,-3.5725 20.711,-9.06 29.509,-16.028 l -5.8869,-5.8869 c -13.099,9.8978 -29.733,16.474 -45.21,17.659 l -4.0989,0.31122 v -10.95 c 0,-10.95 -2.8e-4,-11.001 1.1926,-11.21 0.62306,-0.15378 2.9064,-0.51743 5.0345,-0.82922 9.0432,-1.3319 18.445,-5.381 26.775,-11.287 l -5.9347,-5.9347 c -7.3785,4.8218 -15.864,8.0416 -23.489,8.7631 l -3.5814,0.31171 0.10197,-11.053 0.15366,-11.053 3.3726,-0.88093 c 2.9445,-0.76039 4.8975,-1.4393 6.9884,-2.5419 l -6.5151,-6.5152 c -0.77832,0.28192 -1.5024,0.49106 -2.1278,0.59879 l -1.9707,0.31169 v -5.0089 l -9.3451,-9.3451 v 3.6104 l 0.003,-5e-4 v 10.742 l -1.9194,-0.3117 c -3.3726,-0.57245 -9.3913,-3.8933 -12.352,-6.851 -2.9577,-2.9578 -6.2785,-8.9758 -6.8506,-12.348 l -0.31169,-1.9194 h 14.352 l -9.3407,-9.3407 h -5.0084 l 0.31172,-1.8165 c 0.12114,-0.72814 0.32343,-1.4978 0.59041,-2.2897 l -6.491,-6.4911 c -1.239,2.4024 -2.1846,4.9025 -2.764,7.4311 l -0.67462,2.9063 -11.156,0.15363 -11.156,0.10438 0.46584,-3.4755 c 1.0787,-8.5788 4.1789,-16.62 8.7882,-23.616 l -5.9435,-5.9435 c -5.8194,8.3074 -9.9341,17.888 -11.251,26.81 -0.31154,2.128 -0.67502,4.4109 -0.82925,5.0345 -0.20816,1.1929 -0.25972,1.1926 -11.207,1.1926 h -10.95 l 0.36341,-4.514 c 0.15379,-2.4914 0.93568,-7.2138 1.6619,-10.535 2.863,-12.757 8.3606,-24.375 15.913,-34.288 l -5.8494,-5.8495 c -2.585,3.2443 -4.9699,6.6355 -7.112,10.145 -7.2655,11.934 -12.558,27.813 -13.493,40.319 l -0.30973,4.7228 h -22.157 v -1.8165 c 0,-7.4716 2.7492,-22.003 6.073,-31.915 4.6918,-14.116 11.476,-26.405 20.838,-37.616 z m -21.027,86.565 h 22.154 l 0.31219,4.7257 c 0.67487,8.9247 4.1505,21.639 8.6129,31.239 7.8348,17.02 21.845,32.535 38.556,42.759 11.934,7.2657 27.97,12.609 40.736,13.493 l 4.3076,0.31119 v 22.312 l -4.5652,-0.36341 c -23.041,-1.7134 -44.733,-9.8596 -63.412,-23.819 -6.3303,-4.7227 -17.955,-16.345 -22.678,-22.678 -10.638,-14.271 -18.267,-31.031 -21.639,-47.742 -1.2987,-6.436 -2.3858,-14.892 -2.3858,-18.421 z m 61.904,0.007 11.156,0.10135 11.156,0.15414 0.67508,2.8565 c 1.9194,8.51 8.095,17.02 15.981,22.054 3.6842,2.3343 5.8126,3.2692 10.172,4.4106 l 3.3725,0.88093 0.15364,11.053 0.1044,11.053 -3.5813,-0.3117 c -4.4624,-0.46668 -11.519,-2.492 -16.502,-4.7747 -17.275,-7.9893 -29.835,-25.115 -32.221,-44.003 z m -30.927,0.002 h 10.95 c 10.947,-0.004 10.999,-0.004 11.207,1.139 0.15376,0.6749 0.46553,2.9066 0.77801,4.9833 2.9578,19.72 17.435,39.074 36.272,48.571 5.0344,2.543 13.441,5.2923 18.267,6.0188 2.1282,0.31152 4.4112,0.675 5.0862,0.82924 1.1413,0.20815 1.1414,0.25943 1.1414,11.21 v 10.95 l -4.0994,-0.31169 c -25.064,-1.9201 -50.23,-16.763 -64.501,-37.985 -8.1466,-12.091 -13.75,-27.607 -14.737,-40.891 z"
       fill="#eb5600"
       stroke-width="0.02711"
       id="path6" />
    <text
       xml:space="preserve"
       transform="scale(0.26458)"
       id="text6267"
       style="font-style:normal;font-weight:normal;font-size:40px;line-height:1.25;font-family:sans-serif;white-space:pre;shape-inside:url(#rect6269);fill:#000000;fill-opacity:1;stroke:none" />
    <g
       aria-label="global-conflicts.org"
       transform="matrix(1.0617501,0,0,1.0617501,-1023.851,-20.509681)"
       id="text10233"
       style="font-size:192px;line-height:0;white-space:pre;shape-inside:url(#rect10235);fill:#fefefe">
      <g
         aria-label="global-conflicts.com"
         transform="matrix(0.90462654,0,0,0.90462654,118.79698,-940.6041)"
         id="text6357"
         style="line-height:1.25;shape-inside:url(#rect6359);fill:#000000">
        <path
           d="m 1273.959,1203.1719 q 0,-23.7188 10.3125,-38.25 10.4062,-14.5313 29.25,-14.5313 7.9687,0 14.0625,3.8438 6.0937,3.75 10.5,10.6875 l 2.0625,-12.6563 h 27.9375 v 100.3125 q 0,20.0625 -13.7813,31.0313 -13.6875,11.0625 -37.7812,11.0625 -7.875,0 -16.5,-2.1563 -8.625,-2.1562 -16.5,-5.8125 l 5.4375,-23.4375 q 6.8437,3 13.0312,4.4063 6.2813,1.5 14.3438,1.5 10.125,0 15,-4.0313 4.9687,-4.0312 4.9687,-12.75 v -7.875 q -4.3125,5.5313 -10.0312,8.3438 -5.625,2.8125 -12.9375,2.8125 -18.75,0 -29.0625,-13.875 -10.3125,-13.875 -10.3125,-36.6563 z m 31.5937,1.9687 q 0,12.375 3.5625,19.3125 3.6563,6.8438 12.2813,6.8438 5.1562,0 8.8125,-1.5938 3.75,-1.5937 6.0937,-4.7812 v -42.6563 q -2.3437,-3.6562 -6,-5.5312 -3.6562,-1.9688 -8.7187,-1.9688 -8.4375,0 -12.2813,7.875 -3.75,7.7813 -3.75,20.5313 z"
           style="font-family:Roboto;-inkscape-font-specification:Roboto;fill:#ffffff"
           id="path15862" />
        <path
           d="m 1419.3652,1253.7031 h -31.7812 v -146.25 h 31.7812 z"
           style="font-family:Roboto;-inkscape-font-specification:Roboto;fill:#ffffff"
           id="path15864" />
        <path
           d="m 1434.5527,1202.0469 q 0,-22.875 12.9375,-37.2188 12.9375,-14.4375 36.0938,-14.4375 23.25,0 36.1875,14.4375 12.9375,14.3438 12.9375,37.2188 v 1.9687 q 0,22.9688 -12.9375,37.3125 -12.9375,14.3438 -36,14.3438 -23.3438,0 -36.2813,-14.3438 -12.9375,-14.3437 -12.9375,-37.3125 z m 31.6875,1.9687 q 0,12.75 3.9375,20.0625 4.0313,7.2188 13.5938,7.2188 9.2812,0 13.3125,-7.3125 4.0312,-7.3125 4.0312,-19.9688 v -1.9687 q 0,-12.375 -4.0312,-19.7813 -4.0313,-7.5 -13.5,-7.5 -9.375,0 -13.4063,7.5 -3.9375,7.5 -3.9375,19.7813 z"
           style="font-family:Roboto;-inkscape-font-specification:Roboto;fill:#ffffff"
           id="path15866" />
        <path
           d="m 1640.6152,1205.1406 q 0,23.1563 -9.9375,36.8438 -9.9375,13.6875 -29.4375,13.6875 -8.25,0 -14.4375,-3.5625 -6.1875,-3.5625 -10.5937,-10.3125 l -1.875,11.9062 h -27.6563 v -146.25 h 31.6875 v 54.6563 q 4.2188,-5.625 9.75,-8.625 5.625,-3.0938 12.9375,-3.0938 19.5938,0 29.5313,14.3438 10.0312,14.3437 10.0312,38.4375 z m -31.5937,-1.9687 q 0,-13.5 -3.375,-20.9063 -3.375,-7.5 -12.5625,-7.5 -5.1563,0 -8.9063,1.9688 -3.6562,1.875 -5.8125,5.5312 v 42.6563 q 2.25,3.1875 5.9063,4.7812 3.75,1.5938 9,1.5938 9.375,0 12.5625,-6.4688 3.1875,-6.5625 3.1875,-19.6875 z"
           style="font-family:Roboto;-inkscape-font-specification:Roboto;fill:#ffffff"
           id="path15868" />
        <path
           d="m 1713.1777,1253.6094 q -1.7812,-3.1875 -3.0937,-7.2188 -1.2188,-4.0312 -1.875,-8.4375 -4.125,8.0625 -10.2188,12.9375 -6,4.7813 -15.75,4.7813 -15.9375,0 -24.8437,-8.1563 -8.8125,-8.25 -8.8125,-22.4062 0,-15.0938 11.3437,-23.25 11.3438,-8.25 34.4063,-8.25 h 13.0312 v -7.2188 q 0,-6.4687 -3.0937,-9.9375 -3.0938,-3.4687 -9.4688,-3.4687 -5.5312,0 -8.25,2.625 -2.625,2.5312 -2.625,7.9687 l -30.75,-0.094 -0.1875,-0.5625 q -0.6562,-13.875 11.5313,-23.1563 12.2812,-9.375 32.3437,-9.375 18.8438,0 30.4688,9.375 11.7187,9.375 11.7187,26.8125 v 38.25 q 0,8.0625 1.3125,15 1.4063,6.9375 4.125,13.875 z m -22.3125,-20.5313 q 5.8125,0 10.2188,-2.7187 4.5,-2.7188 6.2812,-6.4688 v -13.4062 h -12.75 q -7.5937,0 -10.9687,3.6562 -3.375,3.6563 -3.375,9.2813 0,4.3125 2.9062,7.0312 3,2.625 7.6875,2.625 z"
           style="font-family:Roboto;-inkscape-font-specification:Roboto;fill:#ffffff"
           id="path15870" />
        <path
           d="m 1789.584,1253.7031 h -31.7813 v -146.25 h 31.7813 z"
           style="font-family:Roboto;-inkscape-font-specification:Roboto;fill:#ffffff"
           id="path15872" />
        <path
           d="m 1867.8652,1207.1094 h -55.2187 v -24.4688 h 55.2187 z"
           style="font-family:Roboto;-inkscape-font-specification:Roboto;fill:#ffffff"
           id="path15874" />
        <path
           d="m 1934.4277,1231.2969 q 6.4688,0 9.6563,-3.4688 3.1875,-3.5625 3.1875,-10.2187 h 28.875 l 0.1875,0.5625 q 0.375,16.5937 -11.5313,27.0937 -11.8125,10.4063 -30.375,10.4063 -23.1562,0 -35.7187,-14.25 -12.4688,-14.3438 -12.4688,-37.3125 v -2.1563 q 0,-22.875 12.4688,-37.2187 12.4687,-14.3438 35.5312,-14.3438 19.3125,0 30.8438,10.7813 11.625,10.6875 11.25,29.3437 l -0.1875,0.5625 h -28.875 q 0,-7.2187 -3.2813,-11.7187 -3.2812,-4.5938 -9.75,-4.5938 -9.1875,0 -12.8437,7.4063 -3.5625,7.3125 -3.5625,19.7812 v 2.1563 q 0,12.75 3.5625,19.9687 3.6562,7.2188 13.0312,7.2188 z"
           style="font-family:Roboto;-inkscape-font-specification:Roboto;fill:#ffffff"
           id="path15876" />
        <path
           d="m 1985.0527,1202.0469 q 0,-22.875 12.9375,-37.2188 12.9375,-14.4375 36.0938,-14.4375 23.25,0 36.1875,14.4375 12.9375,14.3438 12.9375,37.2188 v 1.9687 q 0,22.9688 -12.9375,37.3125 -12.9375,14.3438 -36,14.3438 -23.3438,0 -36.2813,-14.3438 -12.9375,-14.3437 -12.9375,-37.3125 z m 31.6875,1.9687 q 0,12.75 3.9375,20.0625 4.0313,7.2188 13.5938,7.2188 9.2812,0 13.3125,-7.3125 4.0312,-7.3125 4.0312,-19.9688 v -1.9687 q 0,-12.375 -4.0312,-19.7813 -4.0313,-7.5 -13.5,-7.5 -9.375,0 -13.4063,7.5 -3.9375,7.5 -3.9375,19.7813 z"
           style="font-family:Roboto;-inkscape-font-specification:Roboto;fill:#ffffff"
           id="path15878" />
        <path
           d="m 2126.334,1152.2656 1.2187,14.25 q 4.9688,-7.5937 12.2813,-11.8125 7.3125,-4.3125 16.3125,-4.3125 14.9062,0 23.25,10.125 8.4375,10.125 8.4375,32.1563 v 61.0312 h -31.6875 v -61.125 q 0,-9.6562 -3.0938,-13.6875 -3.0937,-4.125 -9,-4.125 -5.0625,0 -9.0937,1.7813 -4.0313,1.7812 -6.75,5.0625 v 72.0937 h -31.5938 v -101.4375 z"
           style="font-family:Roboto;-inkscape-font-specification:Roboto;fill:#ffffff"
           id="path15880" />
        <path
           d="m 2211.9277,1253.7031 v -79.5 h -14.625 v -21.9375 h 14.625 v -10.5 q 0,-17.4375 10.5,-26.8125 10.5,-9.4687 29.7188,-9.4687 3.6562,0 7.3125,0.5625 3.75,0.4687 8.3437,1.4062 l -2.3437,23.3438 q -2.625,-0.4688 -4.5938,-0.6563 -1.9687,-0.2812 -4.7812,-0.2812 -6,0 -9.1875,3.0937 -3.1875,3.0938 -3.1875,8.8125 v 10.5 h 20.0625 v 21.9375 h -20.0625 v 79.5 z"
           style="font-family:Roboto;-inkscape-font-specification:Roboto;fill:#ffffff"
           id="path15882" />
        <path
           d="m 2307.084,1253.7031 h -31.7813 v -146.25 h 31.7813 z"
           style="font-family:Roboto;-inkscape-font-specification:Roboto;fill:#ffffff"
           id="path15884" />
        <path
           d="m 2359.6777,1253.7031 h -31.7812 v -101.4375 h 31.7812 z m 0,-124.9687 h -31.7812 v -21.2813 h 31.7812 z"
           style="font-family:Roboto;-inkscape-font-specification:Roboto;fill:#ffffff"
           id="path15886" />
        <path
           d="m 2422.4902,1231.2969 q 6.4688,0 9.6563,-3.4688 3.1875,-3.5625 3.1875,-10.2187 h 28.875 l 0.1875,0.5625 q 0.375,16.5937 -11.5313,27.0937 -11.8125,10.4063 -30.375,10.4063 -23.1562,0 -35.7187,-14.25 -12.4688,-14.3438 -12.4688,-37.3125 v -2.1563 q 0,-22.875 12.4688,-37.2187 12.4687,-14.3438 35.5312,-14.3438 19.3125,0 30.8438,10.7813 11.625,10.6875 11.25,29.3437 l -0.1875,0.5625 h -28.875 q 0,-7.2187 -3.2813,-11.7187 -3.2812,-4.5938 -9.75,-4.5938 -9.1875,0 -12.8437,7.4063 -3.5625,7.3125 -3.5625,19.7812 v 2.1563 q 0,12.75 3.5625,19.9687 3.6562,7.2188 13.0312,7.2188 z"
           style="font-family:Roboto;-inkscape-font-specification:Roboto;fill:#ffffff"
           id="path15888" />
        <path
           d="m 2513.709,1127.0469 v 25.2187 h 16.0312 v 21.9375 h -16.0312 v 46.5 q 0,5.4375 2.1562,7.875 2.25,2.3438 6,2.3438 2.4375,0 3.8438,-0.1875 1.5,-0.1875 3.75,-0.75 l 2.1562,23.4375 q -4.7812,1.2187 -8.625,1.6875 -3.8437,0.5625 -9.0937,0.5625 -15.6563,0 -23.8125,-8.3438 -8.0625,-8.3437 -8.0625,-26.4375 v -46.6875 h -14.1563 v -21.9375 h 14.1563 v -25.2187 z"
           style="font-family:Roboto;-inkscape-font-specification:Roboto;fill:#ffffff"
           id="path15890" />
        <path
           d="m 2597.9902,1225.2031 q 0,-3.75 -4.3125,-6.6562 -4.2187,-3 -15.4687,-5.3438 -17.7188,-3.4687 -26.7188,-10.6875 -9,-7.3125 -9,-20.0625 0,-13.4062 11.25,-22.6875 11.25,-9.375 30.4688,-9.375 20.25,0 32.25,9.0938 12,9 11.4375,23.3437 l -0.1875,0.5625 h -30.75 q 0,-6 -3,-9.0937 -3,-3.0938 -9.8438,-3.0938 -4.9687,0 -8.3437,2.7188 -3.375,2.7187 -3.375,6.9375 0,4.0312 3.8437,6.8437 3.9375,2.8125 15.75,5.0625 18.6563,3.6563 27.5625,10.9688 8.9063,7.2187 8.9063,20.5312 0,13.6875 -12.1875,22.5938 -12.0938,8.8125 -32.0625,8.8125 -20.7188,0 -32.8125,-10.5 -12,-10.5 -11.4375,-23.4375 l 0.1875,-0.5625 h 28.6875 q 0.1875,7.2187 4.3125,10.4062 4.2187,3.1875 11.9062,3.1875 6.375,0 9.6563,-2.4375 3.2812,-2.5312 3.2812,-7.125 z"
           style="font-family:Roboto;-inkscape-font-specification:Roboto;fill:#ffffff"
           id="path15892" />
        <path
           d="m 2678.709,1253.7031 h -31.5938 v -26.625 h 31.5938 z"
           style="font-family:Roboto;-inkscape-font-specification:Roboto;fill:#ffffff"
           id="path15894" />
        <path
           d="m 2744.8027,1231.2969 q 6.4688,0 9.6563,-3.4688 3.1875,-3.5625 3.1875,-10.2187 h 28.875 l 0.1875,0.5625 q 0.375,16.5937 -11.5313,27.0937 -11.8125,10.4063 -30.375,10.4063 -23.1562,0 -35.7187,-14.25 -12.4688,-14.3438 -12.4688,-37.3125 v -2.1563 q 0,-22.875 12.4688,-37.2187 12.4687,-14.3438 35.5312,-14.3438 19.3125,0 30.8438,10.7813 11.625,10.6875 11.25,29.3437 l -0.1875,0.5625 h -28.875 q 0,-7.2187 -3.2813,-11.7187 -3.2812,-4.5938 -9.75,-4.5938 -9.1875,0 -12.8437,7.4063 -3.5625,7.3125 -3.5625,19.7812 v 2.1563 q 0,12.75 3.5625,19.9687 3.6562,7.2188 13.0312,7.2188 z"
           style="font-family:Roboto;-inkscape-font-specification:Roboto;fill:#ffffff"
           id="path15896" />
        <path
           d="m 2795.4277,1202.0469 q 0,-22.875 12.9375,-37.2188 12.9375,-14.4375 36.0938,-14.4375 23.25,0 36.1875,14.4375 12.9375,14.3438 12.9375,37.2188 v 1.9687 q 0,22.9688 -12.9375,37.3125 -12.9375,14.3438 -36,14.3438 -23.3438,0 -36.2813,-14.3438 -12.9375,-14.3437 -12.9375,-37.3125 z m 31.6875,1.9687 q 0,12.75 3.9375,20.0625 4.0313,7.2188 13.5938,7.2188 9.2812,0 13.3125,-7.3125 4.0312,-7.3125 4.0312,-19.9688 v -1.9687 q 0,-12.375 -4.0312,-19.7813 -4.0313,-7.5 -13.5,-7.5 -9.375,0 -13.4063,7.5 -3.9375,7.5 -3.9375,19.7813 z"
           style="font-family:Roboto;-inkscape-font-specification:Roboto;fill:#ffffff"
           id="path15898" />
        <path
           d="m 2937.3652,1152.2656 1.125,13.4063 q 4.7813,-7.3125 12,-11.25 7.3125,-4.0313 16.6875,-4.0313 9.4688,0 16.3125,4.125 6.8438,4.125 10.3125,12.5625 4.6875,-7.9687 12,-12.2812 7.4063,-4.4063 17.25,-4.4063 14.8125,0 23.25,10.6875 8.5313,10.5938 8.5313,32.7188 v 59.9062 h -31.7813 v -59.9062 q 0,-10.875 -3.0937,-14.9063 -3,-4.125 -9.0938,-4.125 -4.5937,0 -8.1562,1.6875 -3.4688,1.5938 -5.9063,4.5 0,1.5938 0.094,2.8125 0.094,1.125 0.094,2.25 v 67.6875 h -31.6875 v -59.9062 q 0,-10.9688 -3,-15 -3,-4.0313 -9.2812,-4.0313 -4.3125,0 -7.875,1.6875 -3.4688,1.5938 -5.9063,4.5 v 72.75 h -31.6875 v -101.4375 z"
           style="font-family:Roboto;-inkscape-font-specification:Roboto;fill:#ffffff"
           id="path15900" />
      </g>
    </g>
  </g>
</svg>
